<?xml version="1.0" encoding="UTF-8"?>
<svg xmlns="http://www.w3.org/2000/svg" viewBox="0 0 1200 620" width="1200" height="620">
  <style>
    text { font-family: 'Source Sans 3', sans-serif; fill: #1C1B19; }
    .h { font-size: 30px; font-weight: 700; }
    .b { font-size: 25px; }
    .s { font-size: 24px; fill: #6F6B64; }
    .cap { font-size: 21px; font-weight: 700; letter-spacing: 2.5px; fill: #6F6B64; }
    .m { font-family: 'Source Code Pro', monospace; font-size: 24px; font-weight: 500; font-variant-ligatures: none; }
    .ln { fill: none; stroke: #1C1B19; stroke-width: 4; stroke-linecap: round; stroke-linejoin: round; }
  </style>
  <defs>
    <marker id="a" viewBox="0 0 10 10" refX="8" refY="5" markerWidth="4.5" markerHeight="4.5" orient="auto-start-reverse">
      <path d="M0,0 L10,5 L0,10 z" fill="#1C1B19"/>
    </marker>
  </defs>
  <rect x="1.5" y="1.5" width="600" height="470" rx="18" fill="#fff" stroke="#D9D5CC" stroke-width="3"/>
  <text class="m" x="28" y="52" style="font-weight:700">my-study/</text>
  <text class="m" x="28" y="98">&#9500;&#9472; quail.toml</text>
  <text class="s" x="360" y="98" style="font-size:23px">settings</text>
  <text class="m" x="28" y="144">&#9500;&#9472; survey.csv</text>
  <text class="s" x="360" y="144" style="font-size:23px">source, never changed</text>
  <text class="m" x="28" y="190">&#9500;&#9472; sessions/first-pass/</text>
  <text class="m" x="28" y="236">&#9474;  &#9500;&#9472; session.toml</text>
  <text class="m" x="28" y="282">&#9474;  &#9492;&#9472; log/*.jsonl</text>
  <text class="s" x="360" y="282" style="font-size:23px">one per kernel run</text>
  <text class="m" x="28" y="328">&#9500;&#9472; exports/</text>
  <text class="s" x="360" y="328" style="font-size:23px">tags as CSV</text>
  <text class="m" x="28" y="374">&#9500;&#9472; warm/</text>
  <text class="s" x="360" y="374" style="font-size:23px">saved embeddings</text>
  <text class="m" x="28" y="420">&#9492;&#9472; .quail/</text>
  <text class="s" x="360" y="420" style="font-size:23px">local index, not shared</text>
  <path d="M852,34 v72 a68,18 0 0 0 136,0 v-72" fill="#EBE7DF" stroke="#1C1B19" stroke-width="3"/>
  <ellipse cx="920" cy="34" rx="68" ry="18" fill="#fff" stroke="#1C1B19" stroke-width="3"/>
  <text class="h" x="920" y="92" text-anchor="middle" style="font-size:27px">git</text>
  <rect x="640" y="230" width="260" height="200" rx="18" fill="#fff" stroke="#1C1B19" stroke-width="3"/>
  <text class="h" x="664" y="274" style="font-size:28px">Agent A</text>
  <rect x="664" y="292" width="212" height="46" rx="23" fill="#F7E5DA" stroke="#B5522A" stroke-width="2.5"/>
  <text class="m" x="770" y="323" text-anchor="middle" style="font-size:22px;font-weight:700;fill:#B5522A">first-pass</text>
  <text class="s" x="664" y="376" style="font-size:23px">the original</text>
  <text class="s" x="664" y="406" style="font-size:23px">session</text>
  <rect x="940" y="230" width="260" height="200" rx="18" fill="#fff" stroke="#1C1B19" stroke-width="3"/>
  <text class="h" x="964" y="274" style="font-size:28px">Agent B</text>
  <rect x="964" y="292" width="212" height="46" rx="23" fill="#F7E5DA" stroke="#B5522A" stroke-width="2.5"/>
  <text class="m" x="1070" y="323" text-anchor="middle" style="font-size:22px;font-weight:700;fill:#B5522A">second-pass</text>
  <text class="s" x="964" y="376" style="font-size:23px">forked from</text>
  <text class="s" x="964" y="406" style="font-size:23px">first-pass</text>
  <path class="ln" d="M770,222 C770,170 810,124 842,112" marker-end="url(#a)" marker-start="url(#a)"/>
  <path class="ln" d="M1070,222 C1070,170 1030,124 998,112" marker-end="url(#a)" marker-start="url(#a)"/>
  <text class="s" x="752" y="176" text-anchor="end" style="font-size:23px">push, pull</text>
  <text class="s" x="1088" y="176" style="font-size:23px">push, pull</text>
  <text class="h" x="0" y="530" style="font-size:28px">Embedding ahead of time</text>
  <rect x="0" y="556" width="92" height="56" rx="12" fill="#DFEFE8" stroke="#2A7F63" stroke-width="2.5"/>
  <text class="b" x="46" y="593" text-anchor="middle" style="font-weight:700;fill:#2A7F63">1/4</text>
  <rect x="104" y="556" width="92" height="56" rx="12" fill="#DFEFE8" stroke="#2A7F63" stroke-width="2.5"/>
  <text class="b" x="150" y="593" text-anchor="middle" style="font-weight:700;fill:#2A7F63">2/4</text>
  <rect x="208" y="556" width="92" height="56" rx="12" fill="#DFEFE8" stroke="#2A7F63" stroke-width="2.5"/>
  <text class="b" x="254" y="593" text-anchor="middle" style="font-weight:700;fill:#2A7F63">3/4</text>
  <rect x="312" y="556" width="92" height="56" rx="12" fill="#DFEFE8" stroke="#2A7F63" stroke-width="2.5"/>
  <text class="b" x="358" y="593" text-anchor="middle" style="font-weight:700;fill:#2A7F63">4/4</text>
  <path class="ln" d="M420,584 L476,584" marker-end="url(#a)"/>
  <text class="m" x="492" y="593" style="font-weight:700">warm/</text>
  <path class="ln" d="M592,584 L648,584" marker-end="url(#a)"/>
  <text class="s" x="664" y="582">every clone&#8217;s first</text>
  <text class="s" x="664" y="610">semantic search is fast</text>
</svg>
